<svg width="48" height="15" viewBox="0 0 48 15" fill="none" xmlns="http://www.w3.org/2000/svg">
<path d="M0.297562 9.00628C0.209395 9.00628 0.138679 8.96389 0.0844929 8.88096C0.0284705 8.79988 0 8.693 0 8.56031C0 8.26362 0.123984 8.11435 0.371034 8.11435C0.674106 8.11435 0.945035 7.98903 1.1829 7.73841C1.4226 7.48594 1.61271 7.14133 1.75231 6.70642C1.89374 6.26967 1.96538 5.78408 1.96538 5.25058C1.96538 5.12527 1.95803 5.01102 1.94334 4.90782C1.93048 4.80278 1.91395 4.71524 1.89191 4.64614C1.83037 4.58532 1.76333 4.48581 1.68986 4.3476C1.61822 4.20754 1.55761 4.06012 1.50618 3.90532C1.45475 3.74868 1.42903 3.62152 1.42903 3.52569C1.50985 3.39577 1.6421 3.2935 1.82578 3.21978C2.00946 3.14607 2.21151 3.12672 2.43193 3.16081C2.56142 3.40407 2.66795 3.70906 2.75153 4.07486C2.95909 4.07025 3.23828 4.02602 3.58911 3.94217C3.80953 3.89334 3.98678 3.86017 4.12178 3.84266C4.25587 3.82608 4.37251 3.81686 4.47078 3.81686C4.84273 3.81686 5.1357 3.95692 5.34877 4.23703C5.56184 4.51714 5.66837 4.89584 5.66837 5.37221V7.0455C5.66837 7.44632 5.72164 7.72551 5.83001 7.88215C5.93746 8.03695 6.09451 8.11435 6.30023 8.11435C6.39758 8.11435 6.47289 8.15673 6.52432 8.23966C6.57575 8.32351 6.60147 8.43408 6.60147 8.57137C6.60147 8.68194 6.57208 8.78145 6.5133 8.86991C6.45452 8.96021 6.35993 9.00628 6.23043 9.00628C5.80889 9.00628 5.45255 8.86346 5.16141 8.57874C4.87212 8.29126 4.72793 7.81857 4.72793 7.15976V5.54912C4.72793 5.23953 4.69303 5.02207 4.62507 4.89676C4.55619 4.77145 4.4322 4.70879 4.25403 4.70879C4.18975 4.70879 4.11995 4.71616 4.04464 4.73091C3.96841 4.74381 3.83341 4.77053 3.64054 4.81199C3.30257 4.88386 3.04725 4.92532 2.87643 4.9373C2.88378 5.04787 2.88745 5.15844 2.88745 5.26901C2.88745 6.01905 2.77908 6.67325 2.56418 7.23347C2.35111 7.79369 2.04987 8.23044 1.66047 8.54188C1.27107 8.85148 0.816458 9.00628 0.297562 9.00628Z" fill="#FF3B3E"/>
<path d="M6.21358 8.97848C6.12541 8.97848 6.05469 8.93609 6.00051 8.85316C5.94449 8.77208 5.91602 8.66519 5.91602 8.53251C5.91602 8.23582 6.04 8.08655 6.28705 8.08655C6.48726 8.08655 6.69115 8.05522 6.89687 7.99072C7.10443 7.92438 7.34689 7.81196 7.62424 7.65164C7.35423 7.17987 7.22015 6.6261 7.22015 5.9894C7.22015 5.56002 7.29821 5.18132 7.45526 4.85422C7.61414 4.52527 7.83456 4.26636 8.11651 4.07654C8.40029 3.88489 8.72265 3.78906 9.08266 3.78906C9.38574 3.78906 9.65391 3.86093 9.88718 4.00283C10.1223 4.14289 10.3041 4.33823 10.4346 4.58885C10.5668 4.83763 10.6329 5.12512 10.6329 5.4513C10.6329 5.89358 10.5025 6.299 10.2435 6.66757C9.98637 7.03429 9.55013 7.4305 8.93572 7.85803C9.15614 8.01836 9.4537 8.0976 9.82841 8.0976C9.92392 8.0976 9.99831 8.13999 10.0525 8.22292C10.1085 8.30676 10.137 8.41733 10.137 8.55462C10.137 8.68547 10.1048 8.78866 10.0415 8.86422C9.97994 8.93978 9.89178 8.97848 9.77698 8.97848C9.4436 8.97848 9.13226 8.92319 8.84388 8.81262C8.55458 8.70205 8.31304 8.55002 8.12018 8.3556C7.45617 8.77116 6.82064 8.97848 6.21358 8.97848ZM8.12018 5.90832C8.12018 6.4538 8.21661 6.89055 8.41039 7.21673C8.85857 6.90529 9.19012 6.6003 9.40594 6.30268C9.6236 6.00599 9.73289 5.72219 9.73289 5.4513C9.73289 5.20067 9.67228 5.00533 9.55289 4.86528C9.43257 4.72338 9.26451 4.65151 9.0496 4.65151C8.77959 4.65151 8.55734 4.77313 8.38101 5.01639C8.20651 5.2578 8.12018 5.5545 8.12018 5.90832Z" fill="#FF3B3E"/>
<path d="M16.321 8.95699C16.2328 8.95699 16.1621 8.9146 16.1079 8.83167C16.0519 8.75059 16.0234 8.6437 16.0234 8.51102C16.0234 8.21432 16.1474 8.06505 16.3945 8.06505C16.6149 8.06505 16.8592 7.92869 17.1292 7.65595C17.3983 7.38321 17.7133 6.94277 18.0733 6.33279L19.1791 4.45311C19.1644 4.35544 19.157 4.25039 19.157 4.13982C19.157 3.79337 19.2204 3.53814 19.348 3.37321C19.4775 3.20643 19.5832 3.106 19.664 3.07098C19.7815 3.04426 19.9074 3.04703 20.0424 3.07835C20.1764 3.10784 20.2995 3.15852 20.4097 3.22947C20.5199 3.29857 20.5952 3.38058 20.6375 3.47641C20.6099 3.60172 20.5585 3.75191 20.4832 3.92606C20.407 4.09836 20.2857 4.32964 20.1195 4.61896C20.1682 4.69544 20.2306 4.77192 20.3069 4.84747C20.3822 4.92395 20.4758 5.0078 20.5861 5.0981L21.3722 5.7394C21.656 5.96791 21.8681 6.20564 22.0077 6.45074C22.1492 6.69675 22.2208 6.97226 22.2208 7.27632C22.2208 7.64305 22.1179 7.96831 21.9122 8.25302C21.9462 8.3295 21.9637 8.41888 21.9637 8.52208C21.9637 8.65476 21.9306 8.76072 21.8645 8.83904C21.7983 8.91736 21.7065 8.95699 21.5889 8.95699C21.4787 8.95699 21.3722 8.94961 21.2693 8.93487C21.1665 8.92197 21.0526 8.90631 20.9277 8.88696C20.7413 8.93303 20.5438 8.95699 20.3362 8.95699C20.0956 8.95699 19.855 8.92013 19.6125 8.84642C19.3719 8.77547 19.1212 8.66029 18.8595 8.49996C18.8448 8.13416 18.9816 7.86511 19.2709 7.6928C19.6502 7.94159 20.0093 8.06505 20.3473 8.06505C20.6384 8.06505 20.8698 7.98766 21.0416 7.83286C21.2124 7.67622 21.2987 7.47719 21.2987 7.23578C21.2987 6.93171 21.1334 6.64792 20.8028 6.38439L20.0166 5.76152C19.8789 5.65095 19.7558 5.53669 19.6456 5.41875L18.6097 7.17312C18.2294 7.81719 17.8658 8.27514 17.5186 8.54788C17.1705 8.82062 16.771 8.95699 16.321 8.95699Z" fill="white"/>
<path d="M22.1972 8.09039C22.3708 8.09039 22.5692 8.0388 22.7923 7.9356C23.0173 7.8324 23.2368 7.65733 23.4499 7.40855C23.663 7.15792 23.8375 6.82068 23.9752 6.39499C24.1148 5.96745 24.1846 5.43211 24.1846 4.78804V3.79291H23.4205C23.3709 3.68234 23.347 3.54505 23.347 3.38012C23.347 3.21334 23.3709 3.07421 23.4205 2.96364H24.1846V1.12449C24.3169 1.07566 24.4758 1.05078 24.6622 1.05078C24.8257 1.05078 24.9836 1.07566 25.1361 1.12449V2.96364H26.679C26.7323 3.07421 26.7598 3.21334 26.7598 3.38012C26.7598 3.54505 26.7323 3.68234 26.679 3.79291H25.1361V5.94165C25.1361 6.63456 25.2408 7.16714 25.452 7.53755C25.6623 7.90611 25.9608 8.09039 26.3484 8.09039C26.5468 8.09039 26.6459 8.24335 26.6459 8.54742C26.6459 8.6801 26.6129 8.78606 26.5468 8.86438C26.4825 8.9427 26.3925 8.98233 26.2749 8.98233C25.8267 8.98233 25.4483 8.85425 25.1398 8.59902C24.833 8.34378 24.608 7.9872 24.4638 7.53017C24.1745 8.02958 23.8191 8.3963 23.3985 8.63219C22.9769 8.8653 22.5517 8.98233 22.1237 8.98233C22.0356 8.98233 21.9649 8.93902 21.9107 8.85333C21.8546 8.76764 21.8262 8.66167 21.8262 8.53636C21.8262 8.40644 21.8574 8.29956 21.918 8.21571C21.9795 8.13278 22.0723 8.09039 22.1972 8.09039Z" fill="white"/>
<path d="M25.78 9.00237C25.6918 9.00237 25.6211 8.95999 25.5669 8.87706C25.5109 8.79597 25.4824 8.68909 25.4824 8.55641C25.4824 8.25971 25.6064 8.11044 25.8535 8.11044C26.1565 8.11044 26.4275 7.98513 26.6653 7.7345C26.905 7.48203 27.0951 7.13742 27.2347 6.70252C27.3762 6.26576 27.4478 5.78018 27.4478 5.24668C27.4478 5.12137 27.4405 5.00711 27.4258 4.90391C27.4129 4.79887 27.3964 4.71134 27.3743 4.64223C27.3128 4.58142 27.2458 4.4819 27.1723 4.34369C27.1006 4.20364 27.04 4.05621 26.9886 3.90141C26.9372 3.74477 26.9115 3.61761 26.9115 3.52179C26.9923 3.39187 27.1245 3.28959 27.3082 3.21588C27.4919 3.14216 27.6939 3.12281 27.9143 3.15691C28.0438 3.40016 28.1504 3.70515 28.234 4.07095C28.4415 4.06634 28.7207 4.02212 29.0715 3.93827C29.2919 3.88943 29.4692 3.85626 29.6042 3.83875C29.7383 3.82217 29.8549 3.81295 29.9532 3.81295C30.3252 3.81295 30.6181 3.95301 30.8312 4.23312C31.0443 4.51323 31.1508 4.89193 31.1508 5.36831V7.0416C31.1508 7.44241 31.2041 7.7216 31.3124 7.87824C31.4199 8.03304 31.5769 8.11044 31.7827 8.11044C31.88 8.11044 31.9553 8.15282 32.0067 8.23575C32.0582 8.3196 32.0839 8.43017 32.0839 8.56746C32.0839 8.67803 32.0545 8.77755 31.9957 8.866C31.9369 8.9563 31.8423 9.00237 31.7129 9.00237C31.2913 9.00237 30.935 8.85955 30.6438 8.57483C30.3545 8.28735 30.2104 7.81467 30.2104 7.15585V5.54522C30.2104 5.23562 30.1755 5.01817 30.1075 4.89285C30.0386 4.76754 29.9146 4.70489 29.7365 4.70489C29.6722 4.70489 29.6024 4.71226 29.5271 4.727C29.4508 4.7399 29.3158 4.76662 29.123 4.80808C28.785 4.87995 28.5297 4.92142 28.3589 4.9334C28.3662 5.04397 28.3699 5.15454 28.3699 5.26511C28.3699 6.01514 28.2615 6.66935 28.0466 7.22957C27.8335 7.78979 27.5323 8.22654 27.1429 8.53798C26.7535 8.84757 26.2989 9.00237 25.78 9.00237Z" fill="white"/>
<path d="M31.2558 8.03848C31.4 8.03848 31.5552 7.99425 31.7223 7.90579C31.8886 7.81549 32.0438 7.67636 32.1889 7.48931C32.3597 7.25343 32.4846 6.98346 32.5636 6.67847C32.6444 6.3744 32.694 6.06573 32.7142 5.75337V3.88473C32.7776 3.86539 32.8501 3.84972 32.931 3.83682C33.0136 3.82208 33.1009 3.81471 33.1918 3.81471C33.3507 3.81471 33.5059 3.83866 33.6583 3.88473V6.87749C33.6583 7.24422 33.7144 7.52893 33.8273 7.73257C33.9421 7.93712 34.1341 8.03848 34.4041 8.03848C34.5189 8.03848 34.5969 8.08823 34.6392 8.1859C34.6805 8.28173 34.7016 8.38493 34.7016 8.4955C34.7016 8.60607 34.6723 8.70558 34.6135 8.79404C34.5547 8.88434 34.4601 8.93041 34.3306 8.93041C33.6124 8.93041 33.1477 8.59133 32.9346 7.91316C32.8364 8.07349 32.7326 8.20802 32.6224 8.31859C32.4359 8.50564 32.2201 8.65398 31.9758 8.76455C31.7306 8.87512 31.4661 8.93041 31.1823 8.93041C31.0868 8.93041 31.0133 8.88342 30.9619 8.79035C30.9105 8.69729 30.8848 8.59501 30.8848 8.48444C30.8848 8.3665 30.9142 8.2633 30.9729 8.17485C31.0317 8.08455 31.1263 8.03848 31.2558 8.03848ZM33.2138 2.13036C33.02 2.13036 32.8538 2.06217 32.7142 1.92396C32.5765 1.78667 32.5085 1.62082 32.5085 1.4264C32.5085 1.22553 32.5755 1.05691 32.7105 0.921461C32.8446 0.786935 33.0127 0.71875 33.2138 0.71875C33.4122 0.71875 33.5784 0.786935 33.7134 0.921461C33.8475 1.05691 33.9155 1.22553 33.9155 1.4264C33.9155 1.62082 33.8475 1.78667 33.7134 1.92396C33.5784 2.06217 33.4122 2.13036 33.2138 2.13036Z" fill="white"/>
<path d="M33.8347 8.97848C33.7465 8.97848 33.6758 8.93609 33.6216 8.85316C33.5656 8.77208 33.5371 8.66519 33.5371 8.53251C33.5371 8.23582 33.6611 8.08655 33.9081 8.08655C34.1286 8.08655 34.3269 7.97505 34.5033 7.75115C34.6796 7.5254 34.8339 7.14947 34.9661 6.62334L35.2747 5.40707C35.5631 4.32901 36.116 3.78906 36.9315 3.78906C37.2419 3.78906 37.5046 3.8812 37.7177 4.06549C37.9307 4.24793 38.0786 4.49487 38.1622 4.80631C38.355 4.48197 38.6039 4.23134 38.9079 4.05443C39.211 3.87752 39.549 3.78906 39.9218 3.78906C40.46 3.78906 40.8751 3.96597 41.1672 4.3198C41.4611 4.67178 41.608 5.16566 41.608 5.80143V7.0177C41.608 7.41852 41.6604 7.69771 41.766 7.85435C41.8734 8.00915 42.0314 8.08655 42.2399 8.08655C42.3354 8.08655 42.4089 8.12893 42.4603 8.21186C42.5136 8.29571 42.5411 8.40628 42.5411 8.54357C42.5411 8.65414 42.5117 8.75365 42.453 8.84211C42.3942 8.9324 42.2987 8.97848 42.1664 8.97848C41.7449 8.97848 41.3894 8.83566 41.1011 8.55094C40.8118 8.26346 40.6676 7.79077 40.6676 7.13196V5.80143C40.6676 5.05509 40.3737 4.68099 39.7859 4.68099C39.4819 4.68099 39.2147 4.80262 38.9851 5.04587C38.7546 5.28728 38.5745 5.62268 38.445 6.05206C38.3174 6.48236 38.254 6.98085 38.254 7.54844V8.83473C38.1851 8.85408 38.1089 8.87159 38.0263 8.88633C37.9454 8.90108 37.8665 8.90845 37.7911 8.90845C37.624 8.90845 37.4688 8.88357 37.3246 8.83473V5.52132C37.3246 4.9611 37.1648 4.68099 36.847 4.68099C36.7019 4.68099 36.5789 4.74733 36.476 4.88002C36.3731 5.01086 36.2831 5.22186 36.2078 5.51395L35.8221 7.00665C35.643 7.69218 35.3941 8.19251 35.0764 8.50671C34.7604 8.82184 34.3462 8.97848 33.8347 8.97848Z" fill="white"/>
<path d="M41.7148 8.08655C41.9499 8.08655 42.1786 7.97137 42.4017 7.74009C42.6268 7.50698 42.815 7.19369 42.9675 6.80025C42.9601 6.70258 42.9565 6.60491 42.9565 6.50908C42.9565 5.98388 43.0593 5.51672 43.265 5.10853C43.4726 4.6985 43.7546 4.37693 44.11 4.14289C44.4645 3.907 44.8704 3.78906 45.3259 3.78906C45.5684 3.78906 45.8053 3.83605 46.0386 3.92912C46.2737 4.0231 46.4703 4.14934 46.6301 4.30874V3.8812C46.6934 3.86185 46.766 3.84619 46.8468 3.83329C46.9295 3.81855 47.0167 3.81118 47.1076 3.81118C47.2711 3.81118 47.4272 3.83513 47.5742 3.8812V11.6801C47.5742 12.525 47.4272 13.1516 47.1334 13.5598C46.8395 13.967 46.3674 14.1716 45.719 14.1716C45.2359 14.1716 44.8392 14.003 44.5288 13.6666C44.2202 13.3322 44.0659 12.8908 44.0659 12.3435C44.0659 11.0701 44.9375 9.87962 46.6815 8.77208V8.31506C46.4877 8.52422 46.26 8.68731 45.9982 8.80525C45.7355 8.92043 45.4508 8.97848 45.1423 8.97848C44.74 8.97848 44.3864 8.89094 44.0806 8.71679C43.7738 8.53988 43.524 8.29571 43.3312 7.98335C42.9023 8.64677 42.3393 8.97848 41.6413 8.97848C41.5531 8.97848 41.4824 8.93609 41.4282 8.85316C41.3722 8.77208 41.3438 8.6652 41.3438 8.53251C41.3438 8.23582 41.4677 8.08655 41.7148 8.08655ZM43.9189 6.50908C43.9189 7.00112 44.0301 7.38627 44.2532 7.66638C44.4783 7.94649 44.7878 8.08655 45.1827 8.08655C45.6162 8.08655 45.9651 7.92622 46.2296 7.60372C46.496 7.28215 46.6301 6.8583 46.6301 6.33217V5.30387C46.4923 5.11774 46.316 4.96755 46.1011 4.85422C45.888 4.73904 45.6676 4.68099 45.4398 4.68099C45.1432 4.68099 44.8814 4.76116 44.6537 4.92056C44.4259 5.08089 44.2459 5.2965 44.1137 5.56924C43.9832 5.84198 43.9189 6.15526 43.9189 6.50908ZM44.9769 12.3029C44.9769 12.6144 45.0449 12.8576 45.1827 13.0327C45.3195 13.2096 45.5096 13.2981 45.7521 13.2981C46.0754 13.2981 46.3105 13.1617 46.4574 12.889C46.6062 12.6162 46.6815 12.2126 46.6815 11.6801V9.84092C45.5445 10.6444 44.9769 11.4645 44.9769 12.3029Z" fill="white"/>
<path d="M10.3828 8.06533C10.6179 8.06533 10.8465 7.95016 11.0697 7.71888C11.2947 7.48576 11.483 7.17248 11.6355 6.77904C11.6281 6.68137 11.6244 6.5837 11.6244 6.48787C11.6244 5.96266 11.7273 5.4955 11.933 5.08732C12.1406 4.67729 12.4225 4.35571 12.7779 4.12167C13.1324 3.88579 13.5384 3.76785 13.9939 3.76785C14.2364 3.76785 14.4733 3.81484 14.7066 3.9079C14.9417 4.00189 15.1382 4.12812 15.298 4.28753V0.0932445C15.4303 0.0444095 15.5892 0.0195312 15.7756 0.0195312C15.9345 0.0195312 16.0897 0.0444095 16.2422 0.0932445V6.99649C16.2422 7.39731 16.2945 7.67649 16.4001 7.83314C16.5076 7.98793 16.6646 8.06533 16.8703 8.06533C16.9677 8.06533 17.043 8.10772 17.0944 8.19064C17.1459 8.27449 17.1716 8.38506 17.1716 8.52235C17.1716 8.63292 17.1422 8.73244 17.0834 8.82089C17.0246 8.91119 16.93 8.95726 16.8005 8.95726C16.5158 8.95726 16.2568 8.89184 16.0217 8.76192C15.7885 8.62924 15.6103 8.42192 15.4854 8.13905C15.2843 8.3952 15.0409 8.59515 14.7543 8.73981C14.4678 8.88447 14.1528 8.95726 13.8102 8.95726C13.408 8.95726 13.0544 8.86973 12.7486 8.69558C12.4418 8.51867 12.192 8.27449 11.9991 7.96213C11.5702 8.62555 11.0073 8.95726 10.3093 8.95726C10.2211 8.95726 10.1504 8.91488 10.0962 8.83195C10.0402 8.75086 10.0117 8.64398 10.0117 8.5113C10.0117 8.2146 10.1357 8.06533 10.3828 8.06533ZM12.5869 6.48787C12.5869 6.9799 12.698 7.36506 12.9212 7.64517C13.1462 7.92528 13.4557 8.06533 13.8506 8.06533C14.2841 8.06533 14.6331 7.90501 14.8976 7.58251C15.1639 7.26094 15.298 6.83709 15.298 6.31096V5.28266C15.1603 5.09653 14.9839 4.94634 14.769 4.83301C14.556 4.71783 14.3356 4.65978 14.1078 4.65978C13.8111 4.65978 13.5494 4.73994 13.3216 4.89935C13.0939 5.05967 12.9139 5.27529 12.7816 5.54802C12.6512 5.82076 12.5869 6.13405 12.5869 6.48787Z" fill="#FF3B3E"/>
<mask id="mask0_7620_183431" style="mask-type:luminance" maskUnits="userSpaceOnUse" x="32" y="0" width="3" height="3">
<path d="M32.2793 0.404297H34.0426V2.17341H32.2793V0.404297Z" fill="white"/>
</mask>
<g mask="url(#mask0_7620_183431)">
<path fill-rule="evenodd" clip-rule="evenodd" d="M33.2023 0.404297C33.712 0.404297 34.1253 0.818934 34.1253 1.33032C34.1253 1.84171 33.712 2.25634 33.2023 2.25634C32.6926 2.25634 32.2793 1.84171 32.2793 1.33032C32.2793 0.818934 32.6926 0.404297 33.2023 0.404297Z" fill="#FF3B3E"/>
</g>
</svg>
