<svg width="1200" height="630" viewBox="0 0 1200 630" xmlns="http://www.w3.org/2000/svg">
  <defs>
    <linearGradient id="bg" x1="0" y1="0" x2="1200" y2="630" gradientUnits="userSpaceOnUse">
      <stop offset="0%" stop-color="#fff0f0" />
      <stop offset="100%" stop-color="#ffffff" />
    </linearGradient>
  </defs>
  <rect width="1200" height="630" fill="url(#bg)" />

  <g transform="translate(300, 270) scale(2)">
    <path d="M0.687663 20.5346C0.483911 20.5346 0.320485 20.438 0.195262 20.2489C0.065795 20.064 0 19.8203 0 19.5177C0 18.8412 0.286526 18.5008 0.857456 18.5008C1.55785 18.5008 2.18397 18.2151 2.73367 17.6436C3.28762 17.0679 3.72696 16.2821 4.04957 15.2904C4.37642 14.2945 4.54197 13.1873 4.54197 11.9708C4.54197 11.685 4.52499 11.4245 4.49103 11.1892C4.46132 10.9497 4.42311 10.7501 4.37218 10.5925C4.22997 10.4538 4.07504 10.2269 3.90524 9.91173C3.7397 9.59237 3.59962 9.25621 3.48076 8.90323C3.36191 8.54605 3.30248 8.25611 3.30248 8.0376C3.48925 7.74135 3.79488 7.50813 4.21936 7.34005C4.64385 7.17197 5.11078 7.12784 5.62016 7.20558C5.91942 7.76026 6.16562 8.45571 6.35876 9.28982C6.83842 9.27932 7.48364 9.17847 8.2944 8.98727C8.80378 8.87592 9.21341 8.80028 9.5254 8.76036C9.83527 8.72254 10.1048 8.70153 10.3319 8.70153C11.1915 8.70153 11.8685 9.02089 12.3609 9.65961C12.8533 10.2983 13.0995 11.1619 13.0995 12.2481V16.0636C13.0995 16.9776 13.2227 17.6142 13.4731 17.9714C13.7214 18.3243 14.0844 18.5008 14.5598 18.5008C14.7847 18.5008 14.9588 18.5975 15.0776 18.7866C15.1965 18.9778 15.2559 19.2299 15.2559 19.5429C15.2559 19.7951 15.188 20.022 15.0522 20.2237C14.9163 20.4296 14.6977 20.5346 14.3985 20.5346C13.4243 20.5346 12.6008 20.209 11.928 19.5598C11.2594 18.9042 10.9262 17.8264 10.9262 16.3241V12.6515C10.9262 11.9455 10.8455 11.4497 10.6885 11.164C10.5293 10.8782 10.2428 10.7353 9.83103 10.7353C9.68246 10.7353 9.52116 10.7522 9.34712 10.7858C9.17096 10.8152 8.85896 10.8761 8.41326 10.9707C7.63221 11.1345 7.04218 11.2291 6.64741 11.2564C6.66439 11.5085 6.67287 11.7607 6.67287 12.0128C6.67287 13.723 6.42243 15.2148 5.92578 16.4922C5.43338 17.7697 4.73723 18.7656 3.83733 19.4757C2.93742 20.1817 1.88683 20.5346 0.687663 20.5346Z" fill="#ED0004"/>
<path d="M14.3664 20.4786C14.1626 20.4786 13.9992 20.382 13.874 20.1929C13.7445 20.008 13.6787 19.7642 13.6787 19.4617C13.6787 18.7852 13.9652 18.4448 14.5362 18.4448C14.9989 18.4448 15.47 18.3734 15.9455 18.2263C16.4251 18.075 16.9854 17.8187 17.6264 17.4531C17.0024 16.3774 16.6925 15.1146 16.6925 13.6628C16.6925 12.6837 16.873 11.8202 17.2359 11.0743C17.6031 10.3242 18.1124 9.73385 18.764 9.30103C19.4199 8.86402 20.1648 8.64551 20.9968 8.64551C21.6972 8.64551 22.317 8.80939 22.8561 9.13295C23.3994 9.45231 23.8196 9.89773 24.121 10.4692C24.4266 11.0365 24.5795 11.692 24.5795 12.4358C24.5795 13.4443 24.2781 14.3688 23.6796 15.2092C23.0853 16.0454 22.0771 16.9488 20.6572 17.9237C21.1666 18.2893 21.8543 18.47 22.7202 18.47C22.941 18.47 23.1129 18.5667 23.2381 18.7557C23.3676 18.9469 23.4334 19.1991 23.4334 19.5121C23.4334 19.8105 23.3591 20.0458 23.2126 20.2181C23.0704 20.3904 22.8667 20.4786 22.6014 20.4786C21.8309 20.4786 21.1114 20.3525 20.445 20.1004C19.7764 19.8483 19.2182 19.5016 18.7725 19.0583C17.238 20.0059 15.7693 20.4786 14.3664 20.4786ZM18.7725 13.4779C18.7725 14.7217 18.9954 15.7176 19.4432 16.4614C20.4789 15.7512 21.2451 15.0558 21.7439 14.3772C22.2469 13.7006 22.4995 13.0535 22.4995 12.4358C22.4995 11.8643 22.3594 11.4189 22.0835 11.0995C21.8055 10.776 21.4171 10.6121 20.9204 10.6121C20.2964 10.6121 19.7828 10.8894 19.3753 11.4441C18.972 11.9946 18.7725 12.6711 18.7725 13.4779Z" fill="#ED0004"/>
<path d="M37.8489 20.2855C37.6451 20.2855 37.6782 20.0415 37.4547 19.8954C37.3252 19.7106 37.0359 19.7109 37.0359 19.4084C37.0359 18.7318 37.3224 18.3914 37.8933 18.3914C38.4027 18.3914 38.9673 18.0805 39.5913 17.4586C40.2131 16.8367 40.9411 15.8324 41.7731 14.4415L44.3285 10.1553C44.2946 9.93263 44.2776 9.69311 44.2776 9.44098C44.2776 8.65099 44.424 8.069 44.719 7.69291C45.0183 7.31262 45.2624 7.08361 45.4491 7.00377C45.7208 6.94284 46.0116 6.94914 46.3236 7.02058C46.6335 7.08781 46.9179 7.20337 47.1725 7.36515C47.4272 7.52273 47.6013 7.70972 47.6989 7.92823C47.6352 8.21397 47.5164 8.55644 47.3423 8.95354C47.1662 9.34644 46.886 9.8738 46.5019 10.5335C46.6144 10.7079 46.7587 10.8823 46.9348 11.0546C47.1089 11.229 47.3254 11.4202 47.5801 11.6261L49.3968 13.0884C50.0527 13.6095 50.5429 14.1515 50.8656 14.7104C51.1924 15.2714 51.358 15.8996 51.358 16.5929C51.358 17.4292 51.1202 18.1708 50.6448 18.8201C50.7233 18.9944 50.7637 19.1982 50.7637 19.4336C50.7637 19.7361 50.6873 19.9777 50.5345 20.1563C50.3816 20.3349 50.1694 20.4253 49.8977 20.4253C49.643 20.4253 49.3968 20.4084 49.1591 20.3748C48.9214 20.3454 48.6582 20.3097 48.3696 20.2656C47.9387 20.3706 47.4824 20.4253 47.0028 20.4253C46.4467 20.4253 45.8906 20.3412 45.3303 20.1731C44.7742 20.0114 44.1948 19.7487 43.5899 19.3831C43.556 18.549 43.8722 17.9355 44.5408 17.5426C45.4173 18.1099 46.2472 18.3914 47.0282 18.3914C47.701 18.3914 48.2359 18.215 48.6328 17.862C49.0275 17.5048 49.227 17.051 49.227 16.5005C49.227 15.8072 48.845 15.16 48.0809 14.5591L46.2642 13.1388C45.9458 12.8867 45.6614 12.6262 45.4067 12.3572L43.0126 16.3576C42.1339 17.8263 41.2935 18.8705 40.4912 19.4924C39.6868 20.1143 38.8888 20.2855 37.8489 20.2855Z" fill="#000000"/>
<path d="M51.2935 18.4492C51.6946 18.4492 52.1531 18.3316 52.6688 18.0962C53.1888 17.8609 53.6961 17.4617 54.1885 16.8944C54.6809 16.323 55.0841 15.554 55.4025 14.5833C55.7251 13.6084 55.8864 12.3877 55.8864 10.9191V8.64993H54.1206C54.0059 8.39781 53.9508 8.08475 53.9508 7.70866C53.9508 7.32837 54.0059 7.01112 54.1206 6.75899H55.8864V2.5653C56.192 2.45395 56.5592 2.39722 56.9901 2.39722C57.3678 2.39722 57.7329 2.45395 58.0852 2.5653V6.75899H61.6509C61.774 7.01112 61.8377 7.32837 61.8377 7.70866C61.8377 8.08475 61.774 8.39781 61.6509 8.64993H58.0852V13.5496C58.0852 15.1296 58.3272 16.344 58.8153 17.1886C59.3014 18.029 59.9912 18.4492 60.8868 18.4492C61.3453 18.4492 61.5745 18.798 61.5745 19.4913C61.5745 19.7939 61.4981 20.0355 61.3453 20.2141C61.1967 20.3927 60.9887 20.483 60.717 20.483C59.6813 20.483 58.8068 20.191 58.0937 19.609C57.3848 19.027 56.8648 18.2139 56.5316 17.1718C55.8631 18.3105 55.0417 19.1468 54.0696 19.6846C53.0954 20.2162 52.1127 20.483 51.1237 20.483C50.9199 20.483 50.7565 20.3843 50.6313 20.1889C50.5018 19.9935 50.436 19.7519 50.436 19.4661C50.436 19.1699 50.5082 18.9262 50.6483 18.735C50.7905 18.5459 51.0048 18.4492 51.2935 18.4492Z" fill="#000000"/>
<path d="M59.5812 20.5305C59.3775 20.5305 59.214 20.4338 59.0888 20.2447C58.9593 20.0599 58.8936 19.8161 58.8936 19.5136C58.8936 18.837 59.1801 18.4967 59.751 18.4967C60.4514 18.4967 61.0775 18.2109 61.6272 17.6394C62.1812 17.0638 62.6205 16.278 62.9431 15.2863C63.27 14.2904 63.4355 13.1831 63.4355 11.9666C63.4355 11.6809 63.4185 11.4203 63.3846 11.185C63.3549 10.9455 63.3167 10.7459 63.2657 10.5883C63.1235 10.4497 62.9686 10.2227 62.7988 9.90758C62.6333 9.58822 62.4932 9.25206 62.3743 8.89908C62.2555 8.5419 62.196 8.25196 62.196 8.03345C62.3828 7.7372 62.6884 7.50398 63.1129 7.3359C63.5374 7.16782 64.0043 7.12369 64.5137 7.20143C64.813 7.75611 65.0592 8.45156 65.2523 9.28567C65.732 9.27517 66.3772 9.17432 67.188 8.98312C67.6973 8.87177 68.107 8.79613 68.419 8.75621C68.7288 8.71839 68.9984 8.69738 69.2255 8.69738C70.0851 8.69738 70.7621 9.01674 71.2545 9.65546C71.7469 10.2942 71.9931 11.1577 71.9931 12.2439V16.0595C71.9931 16.9734 72.1162 17.61 72.3666 17.9672C72.615 18.3202 72.9779 18.4967 73.4533 18.4967C73.6783 18.4967 73.8523 18.5933 73.9712 18.7824C74.0901 18.9736 74.1495 19.2257 74.1495 19.5388C74.1495 19.7909 74.0816 20.0178 73.9457 20.2195C73.8099 20.4254 73.5913 20.5305 73.292 20.5305C72.3178 20.5305 71.4943 20.2048 70.8215 19.5556C70.153 18.9001 69.8198 17.8222 69.8198 16.32V12.6474C69.8198 11.9414 69.7391 11.4456 69.582 11.1598C69.4229 10.8741 69.1363 10.7312 68.7246 10.7312C68.576 10.7312 68.4147 10.748 68.2407 10.7816C68.0645 10.811 67.7525 10.872 67.3068 10.9665C66.5258 11.1304 65.9357 11.2249 65.541 11.2523C65.5579 11.5044 65.5664 11.7565 65.5664 12.0086C65.5664 13.7189 65.316 15.2106 64.8193 16.4881C64.3269 17.7655 63.6308 18.7614 62.7309 19.4716C61.831 20.1775 60.7804 20.5305 59.5812 20.5305Z" fill="#000000"/>
<path d="M72.2408 18.3309C72.574 18.3309 72.9327 18.23 73.3189 18.0283C73.7031 17.8224 74.0618 17.5051 74.3971 17.0786C74.7919 16.5408 75.0806 15.9252 75.2631 15.2297C75.4499 14.5364 75.5645 13.8325 75.6112 13.1203V8.85934C75.7576 8.81521 75.9253 8.7795 76.112 8.75008C76.3031 8.71646 76.5047 8.69966 76.7148 8.69966C77.082 8.69966 77.4407 8.75428 77.793 8.85934V15.6835C77.793 16.5198 77.9225 17.169 78.1835 17.6333C78.4488 18.0997 78.8924 18.3309 79.5164 18.3309C79.7817 18.3309 79.9621 18.4443 80.0597 18.667C80.1553 18.8855 80.2041 19.1209 80.2041 19.373C80.2041 19.6251 80.1362 19.852 80.0003 20.0537C79.8645 20.2596 79.6459 20.3647 79.3466 20.3647C77.6869 20.3647 76.6129 19.5915 76.1205 18.0451C75.8934 18.4107 75.6536 18.7175 75.3989 18.9696C74.9681 19.3961 74.4693 19.7344 73.9047 19.9865C73.338 20.2386 72.7268 20.3647 72.071 20.3647C71.8502 20.3647 71.6804 20.2575 71.5616 20.0453C71.4427 19.8331 71.3833 19.5999 71.3833 19.3478C71.3833 19.0788 71.4512 18.8435 71.5871 18.6418C71.7229 18.4359 71.9415 18.3309 72.2408 18.3309ZM76.7658 4.85894C76.3179 4.85894 75.9338 4.70346 75.6112 4.38831C75.2928 4.07525 75.1357 3.69706 75.1357 3.25374C75.1357 2.79571 75.2907 2.41122 75.6027 2.10237C75.9125 1.79561 76.3009 1.64014 76.7658 1.64014C77.2242 1.64014 77.6084 1.79561 77.9203 2.10237C78.2302 2.41122 78.3873 2.79571 78.3873 3.25374C78.3873 3.69706 78.2302 4.07525 77.9203 4.38831C77.6084 4.70346 77.2242 4.85894 76.7658 4.85894Z" fill="#000000"/>
<path d="M78.1928 20.4786C77.989 20.4786 77.8256 20.382 77.7004 20.1929C77.5709 20.008 77.5051 19.7642 77.5051 19.4617C77.5051 18.7852 77.7917 18.4448 78.3626 18.4448C78.872 18.4448 79.3304 18.1906 79.7379 17.68C80.1454 17.1653 80.502 16.308 80.8076 15.1083L81.5207 12.3349C82.1872 9.87672 83.4649 8.64551 85.3496 8.64551C86.067 8.64551 86.674 8.85561 87.1664 9.27582C87.6588 9.69183 88.0005 10.2549 88.1936 10.9651C88.6393 10.2255 89.2145 9.65401 89.917 9.25061C90.6174 8.84721 91.3985 8.64551 92.2602 8.64551C93.5039 8.64551 94.4633 9.04891 95.1382 9.85571C95.8174 10.6583 96.157 11.7845 96.157 13.2342V16.0076C96.157 16.9215 96.2779 17.5581 96.522 17.9153C96.7703 18.2683 97.1354 18.4448 97.6172 18.4448C97.8379 18.4448 98.0077 18.5414 98.1266 18.7305C98.2497 18.9217 98.3133 19.1739 98.3133 19.4869C98.3133 19.739 98.2454 19.9659 98.1096 20.1676C97.9737 20.3736 97.753 20.4786 97.4474 20.4786C96.4732 20.4786 95.6518 20.1529 94.9854 19.5037C94.3168 18.8482 93.9836 17.7704 93.9836 16.2681V13.2342C93.9836 11.5323 93.3044 10.6793 91.9461 10.6793C91.2436 10.6793 90.6259 10.9567 90.0953 11.5113C89.5626 12.0618 89.1466 12.8266 88.8473 13.8057C88.5523 14.7869 88.4059 15.9235 88.4059 17.2178V20.1508C88.2467 20.195 88.0705 20.2349 87.8795 20.2685C87.6927 20.3021 87.5102 20.3189 87.3362 20.3189C86.9499 20.3189 86.5912 20.2622 86.258 20.1508V12.5955C86.258 11.318 85.8887 10.6793 85.1543 10.6793C84.819 10.6793 84.5346 10.8306 84.2969 11.1331C84.0592 11.4315 83.8512 11.9126 83.6771 12.5787L82.7857 15.9824C82.3718 17.5455 81.7967 18.6864 81.0623 19.4029C80.3322 20.1214 79.375 20.4786 78.1928 20.4786Z" fill="#000000"/>
<path d="M96.4019 18.313C96.9452 18.313 97.4737 18.0539 97.9895 17.5336C98.5095 17.0092 98.9445 16.3045 99.2969 15.4194C99.2799 15.1997 99.2714 14.98 99.2714 14.7644C99.2714 13.5829 99.5091 12.532 99.9845 11.6137C100.464 10.6914 101.116 9.96795 101.937 9.44146C102.756 8.91083 103.695 8.64551 104.747 8.64551C105.308 8.64551 105.855 8.75122 106.394 8.96057C106.938 9.172 107.392 9.45597 107.761 9.81456V8.85279C107.908 8.80926 108.075 8.77402 108.262 8.745C108.453 8.71184 108.655 8.69525 108.865 8.69525C109.243 8.69525 109.603 8.74915 109.943 8.85279V26.3969C109.943 28.2976 109.603 29.7071 108.924 30.6254C108.245 31.5416 107.154 32.0017 105.656 32.0017C104.539 32.0017 103.622 31.6224 102.905 30.8658C102.192 30.1134 101.835 29.1205 101.835 27.8893C101.835 25.0247 103.849 22.3467 107.88 19.8552V18.8271C107.432 19.2976 106.906 19.6645 106.301 19.9298C105.694 20.1889 105.036 20.3195 104.323 20.3195C103.393 20.3195 102.576 20.1226 101.869 19.7308C101.16 19.3328 100.583 18.7835 100.137 18.0809C99.1462 19.5733 97.8451 20.3195 96.2321 20.3195C96.0283 20.3195 95.8649 20.2241 95.7397 20.0376C95.6102 19.8552 95.5444 19.6147 95.5444 19.3162C95.5444 18.6488 95.831 18.313 96.4019 18.313ZM101.496 14.7644C101.496 15.8713 101.753 16.7377 102.268 17.3678C102.788 17.9979 103.503 18.313 104.416 18.313C105.418 18.313 106.224 17.9523 106.836 17.2269C107.451 16.5035 107.761 15.55 107.761 14.3664V12.0532C107.443 11.6345 107.035 11.2966 106.539 11.0417C106.046 10.7826 105.537 10.652 105.01 10.652C104.325 10.652 103.72 10.8323 103.194 11.1909C102.667 11.5516 102.251 12.0366 101.946 12.6501C101.644 13.2637 101.496 13.9684 101.496 14.7644ZM103.941 27.7981C103.941 28.4987 104.098 29.0459 104.416 29.4398C104.732 29.8377 105.172 30.0367 105.732 30.0367C106.479 30.0367 107.022 29.7299 107.362 29.1164C107.706 28.5029 107.88 27.595 107.88 26.3969V22.2596C105.252 24.0671 103.941 25.9119 103.941 27.7981Z" fill="#000000"/>
<path d="M23.9888 18.3935C24.5321 18.3935 25.0606 18.1308 25.5764 17.6035C26.0964 17.0719 26.5315 16.3575 26.8838 15.4604C26.8668 15.2377 26.8583 15.015 26.8583 14.7965C26.8583 13.5989 27.096 12.5336 27.5714 11.6029C28.0511 10.6679 28.7027 9.93464 29.5241 9.40098C30.3433 8.86311 31.2814 8.59418 32.3342 8.59418C32.8945 8.59418 33.4421 8.70133 33.9812 8.91354C34.5245 9.12784 34.9787 9.41569 35.348 9.77917V0.215203C35.6536 0.103848 36.0208 0.0471191 36.4517 0.0471191C36.8188 0.0471191 37.1775 0.103848 37.5298 0.215203V15.9562C37.5298 16.8702 37.6508 17.5068 37.8949 17.864C38.1432 18.217 38.5062 18.3935 38.9816 18.3935C39.2066 18.3935 39.3806 18.4901 39.4994 18.6792C39.6183 18.8704 39.6777 19.1225 39.6777 19.4356C39.6777 19.6877 39.6098 19.9146 39.474 20.1163C39.3381 20.3222 39.1195 20.4273 38.8203 20.4273C38.1623 20.4273 37.5638 20.2781 37.0205 19.9818C36.4814 19.6793 36.0696 19.2066 35.781 18.5615C35.3162 19.1456 34.7537 19.6016 34.0915 19.9314C33.4293 20.2613 32.7013 20.4273 31.9097 20.4273C30.9801 20.4273 30.1629 20.2277 29.4562 19.8306C28.7473 19.4272 28.17 18.8704 27.7243 18.1581C26.7331 19.6709 25.4321 20.4273 23.819 20.4273C23.6153 20.4273 23.4518 20.3306 23.3266 20.1415C23.1971 19.9566 23.1313 19.7129 23.1313 19.4104C23.1313 18.7338 23.4179 18.3935 23.9888 18.3935ZM29.0826 14.7965C29.0826 15.9184 29.3394 16.7967 29.8552 17.4354C30.3752 18.0741 31.0904 18.3935 32.0031 18.3935C33.0048 18.3935 33.8114 18.0279 34.4226 17.2925C35.0381 16.5592 35.348 15.5928 35.348 14.3931V12.0483C35.0296 11.6239 34.6221 11.2814 34.1255 11.023C33.6331 10.7604 33.1237 10.628 32.5973 10.628C31.9118 10.628 31.3069 10.8108 30.7805 11.1743C30.2542 11.5398 29.8382 12.0315 29.5326 12.6534C29.2312 13.2753 29.0826 13.9897 29.0826 14.7965Z" fill="#ED0004"/>
<path d="M74.6055 0.925537H78.6805V4.95955H74.6055V0.925537Z" fill="#000000"/>
<path fill-rule="evenodd" clip-rule="evenodd" d="M76.7385 0.925537C77.9164 0.925537 78.8715 1.87101 78.8715 3.03709C78.8715 4.20317 77.9164 5.14864 76.7385 5.14864C75.5606 5.14864 74.6055 4.20317 74.6055 3.03709C74.6055 1.87101 75.5606 0.925537 76.7385 0.925537Z" fill="#ED0004"/>
<mask id="mask0_3314_311" style="mask-type: luminance" maskUnits="userSpaceOnUse" x="74" y="0" width="5" height="5">
        <path d="M74.6055 0.925537H78.6805V4.95955H74.6055V0.925537Z" fill="#000000"/>
      </mask>
 <g mask="url(#mask0_3314_311)">
        <path fill-rule="evenodd" clip-rule="evenodd" d="M76.7385 0.925537C77.9164 0.925537 78.8715 1.87101 78.8715 3.03709C78.8715 4.20317 77.9164 5.14864 76.7385 5.14864C75.5606 5.14864 74.6055 4.20317 74.6055 3.03709C74.6055 1.87101 75.5606 0.925537 76.7385 0.925537Z" fill="#ED0004"/>
      </g>
  </g>

  <g transform="translate(700, 290) scale(0.2)">
    <path d="M605.696 100.648C610.899 94.2805 618.017 86.7829 624.646 81.836C627.304 79.8524 627.667 80.4532 630.566 80.975C632.443 83.4227 631.913 82.0758 632.18 85.1774C630.385 89.2078 625.435 93.0875 622.235 96.7891C633.507 94.3196 665.642 89.3235 675.831 92.7336C692.671 93.6899 715.181 103.797 722.414 120C764.272 181.445 705.36 268.594 632.994 254C613.625 250.094 594.188 236.977 583.08 220.586C569.101 199.961 569.732 162.875 580.966 141.18C583.277 134.906 587.18 128.359 590.099 122.039L573.344 130.523C570.697 128.625 567.96 126.289 565.407 124.219C579.43 109.852 593.449 109.18 605.696 100.648ZM605.436 115.742C597.581 128.758 589.999 141.875 586.16 156.688C572.126 210.828 596.158 250.906 654.688 243.523C669.748 240.492 676.435 237.406 689.968 229.313C724.131 208.875 743.523 143.547 708.045 116.391C697.339 108.203 668.703 104.297 655.067 106.555C640.533 107.969 619.005 110.172 605.436 115.742Z" fill="#020202"/>
<path d="M675.832 92.7336C692.671 93.6899 715.181 103.797 722.415 120C719.465 118.938 709.027 106.594 702.717 102.922C695.619 98.7813 679.262 96.0266 675.832 92.7336Z" fill="#303030"/>
<path d="M605.696 100.648C610.899 94.2805 618.017 86.7829 624.646 81.836C627.304 79.8524 627.667 80.4532 630.566 80.975C626.043 84.5305 609.82 100.305 607.187 101.164L605.696 100.648Z" fill="#303030"/>
<path d="M590.099 122.039C591.378 120.484 590.843 120.898 592.574 120.055C593.309 122.695 593.978 123.234 591.934 126.094C589.74 129.156 583.606 139.742 580.966 141.18C583.277 134.906 587.18 128.359 590.099 122.039Z" fill="#303030"/>
<path d="M665.644 116.094C671.742 116.703 672.976 117.578 677.572 121.672C673.125 133.625 668.374 145.852 664.764 158.047L702.576 145.148C704.981 157.648 702.062 159.172 689.855 162.836C684.235 164.523 678.564 166.547 673.092 168.672C683.767 173.453 712.127 177.75 701.407 193.633C698.063 194.945 676.856 185.562 670.432 183.758L669.286 183.445C673.809 192.625 682.526 207.305 685.309 216.57C681.721 217.477 678.142 218.977 674.667 220.305C668.539 208.297 661.72 196.539 655.063 184.805C650.891 194.109 646.844 203.461 642.923 212.867C641.758 215.187 640.096 217.781 638.741 220.039C636.228 218.109 631.114 215.195 628.246 213.453C632.707 203.937 637.758 190.281 641.396 180.328C632.397 183.18 617.407 187.914 608.5 189.273L603.225 178.063C613.106 175.367 622.837 172.789 632.575 169.602C629.809 168.047 582.376 149.055 603.3 140.883C604.058 140.586 635.434 154.719 640.213 156.766C636.941 149.875 628.635 136.023 630.56 128.734C631.51 125.141 634.706 124.047 637.934 122.359C642.382 132.273 646.722 142.078 651.558 151.812C655.492 142.234 660.985 124.609 665.644 116.094Z" fill="#020202"/>
<path d="M1263.12 0C1264.8 1.32813 1260.42 14.3047 1259.57 17.4195L1223.72 147.242C1217.32 170.344 1210.66 193.43 1204.77 216.664C1203.86 220.25 1203.13 225.039 1203.92 228.414C1204.41 232.148 1210.5 235.133 1213.91 233.305C1227.21 226.172 1230.72 207.422 1235.69 194.539C1236.66 192.008 1238.72 191.273 1240.74 190.672L1240.51 190.641L1241.52 191.43C1241.37 195.484 1239.25 200.617 1238.05 204.594C1234.08 217.742 1230.02 230.43 1218.06 238.625C1211.18 243.414 1202.64 245.18 1194.41 243.516C1170.97 239 1185.75 201.094 1189.07 186.57C1184.9 195.258 1180.24 203.695 1175.12 211.852C1163.72 229.391 1143.72 249.547 1120.52 243.211C1112.56 241.063 1105.86 235.672 1102.04 228.359C1093.37 211.859 1098.09 184.008 1103.69 167.07C1114.16 135.406 1135.68 102.398 1166.15 86.8992C1175.57 82.1102 1191.13 77.7055 1201.44 81.2883C1208.35 83.6891 1211.17 88.7977 1214.05 94.8344C1216.73 82.0438 1233.3 33.5633 1229.06 24.0609C1226.44 18.1672 1217.58 18.7359 1212.25 17.1109C1210.22 14.9922 1210.79 16.2578 1210.82 13.0617C1212.37 10.6719 1217.04 10.8695 1220.12 10.7727C1236.39 10.2617 1248.23 6.43047 1263.12 0ZM1144.73 233.141C1167.62 218.633 1183.9 187.164 1193.93 162.602C1201.58 143.828 1206.69 121.602 1211.94 101.797C1208.05 90.6508 1203.69 86.1344 1191.4 86.9359C1159.05 93.0406 1140.15 134.945 1131.29 163.008C1126.69 177.57 1111.16 242.867 1144.73 233.141Z" fill="#020202"/>
<path d="M1663.34 68.0828C1678.04 66.7047 1688.87 71.8469 1686.39 88.8297C1684.36 102.703 1667.57 107.078 1660.62 94.1258C1657.36 88.0453 1659.67 79.6945 1661.63 73.5617C1653.01 77.4953 1650.17 79.4187 1644.04 86.4234C1645.08 87.2359 1646.1 88.0883 1647.08 88.9773C1661.04 101.578 1657.97 123.797 1650.95 138.391C1640.76 159.602 1623.17 169.008 1601.83 175.703C1596.54 177.359 1588.09 182.875 1582.76 185.68C1577.64 188.367 1566.51 194.406 1567.04 201.125C1573.01 213.976 1621.24 216.555 1633.79 227.742C1637.04 230.148 1641.04 235.867 1641.12 240.164C1641.8 274.469 1601.46 295.445 1571.93 298.023C1553.6 299.617 1527.99 300.984 1512.44 289.266C1500.36 280.164 1507.08 267.148 1514.37 258.156C1521.44 251.312 1538.2 240.336 1547.56 240.07C1549.86 241.156 1549.03 240.313 1550.01 242.805C1547.15 247.391 1540.4 249.305 1537.05 253.867C1532.54 260.008 1529.23 269.086 1530.89 276.68C1532.03 281.953 1535.55 286.141 1540.02 289C1550.42 295.641 1565.17 294.891 1576.76 292.203C1591.01 288.898 1609.68 280.625 1617.39 267.398C1619.61 263.594 1622.26 256.914 1620.47 252.492C1617.57 245.32 1571.4 237.453 1561.57 234.352C1555.95 232.57 1549.99 229.516 1547.36 223.93C1545.32 219.555 1545.55 214.289 1547.13 209.813C1552.99 193.273 1578.09 182.68 1592.83 175.562C1556.79 172.875 1543.24 156.531 1555.48 121.203C1567.21 87.3727 1605.9 71.4164 1638.6 83.9031C1646.15 75.6859 1652.4 70.9609 1663.34 68.0828ZM1596.01 170.008C1625.61 166.258 1631.53 124.078 1629.87 100.273C1628.97 87.2922 1622.48 84.7758 1611.36 85.2844C1588.24 90.8687 1581.33 118.922 1578.26 139.32C1575.99 154.461 1576.29 170.805 1596.01 170.008Z" fill="#020202"/>
<path d="M792.835 80.0281C796.484 80.2023 800.378 80.4109 803.829 81.7062C809.051 83.6664 812.044 87.8101 812.915 93.2421C817.508 121.883 770.138 212.094 778.281 229.75C779.339 232.047 781.163 233.625 783.592 234.305C788.156 235.57 793.593 233.734 797.549 231.484C831.974 211.914 859.513 121.695 868.956 84.4632C879.467 83.5742 885.819 82.8484 896.068 80.3641C890.81 100.672 854.995 218.828 856.877 228.82C857.215 230.617 858.057 231.867 859.721 232.719C862.109 233.937 866.003 232.937 868.322 231.906C880.646 226.445 886.279 204.023 890.426 192.477C891.317 190.687 893.247 191.07 894.957 190.961L895.53 191.851C893.399 204.594 884.366 227.961 874.045 236.227C866.389 242.352 844.083 249.844 838.773 238.313C830.013 219.297 844.346 184.977 848.616 164.234C835.589 193.656 814.271 246.586 774.705 244.172C735.914 241.805 758.709 192.219 765.828 170.922L781.992 122.523C784.153 116.016 795.359 90.375 781.458 90.8219C762.563 91.4297 760.97 123.609 752.699 132.469C750.466 133.086 751.521 133.172 749.424 132.266L749.153 130.547C758.095 106.5 761.142 82.3671 792.835 80.0281Z" fill="#020202"/>
<path d="M1488.31 80.0383C1499.19 80.4688 1509.83 83.3102 1511.38 95.6845C1513.72 114.328 1504.37 136.164 1498.55 153.633L1482.33 202.375C1480.19 208.82 1474.43 224.719 1476.28 227.953C1489.78 251.492 1507.58 202.461 1510.07 193.82C1510.12 193.617 1510.5 191.594 1513.25 190.461C1514.65 191.211 1514.03 190.891 1514.94 192.875C1514.95 198.203 1506.05 221.391 1502.27 226.922C1497.27 234.68 1488.51 242.172 1478.9 243.453C1437.44 248.992 1453.15 210.203 1460.11 189.336L1476.98 138.781C1478.37 134.602 1479.83 130.07 1481.36 125.648C1486.23 114.906 1495.9 79.4149 1470.73 90.7102C1445.75 101.922 1425.97 144.891 1415.49 168.242C1404.49 195.742 1399.8 211.5 1392.46 239.852L1366.76 239.836C1371.12 218.422 1406.81 106.578 1404.55 95.5126C1404.09 93.3047 1403.38 92.5243 1401.62 91.2024C1380.05 85.8696 1377.14 127.938 1367.94 133.399L1366.53 132.828C1366.44 132.352 1366.27 131.602 1366.39 131.086C1372.27 105.656 1385.86 71.5532 1418.77 81.8891C1424.05 84.4571 1427.04 92.4266 1426.44 98.0079C1424.12 119.906 1417.01 143.281 1411.66 164.688C1426.34 130.539 1445.9 82.5235 1488.31 80.0383Z" fill="#020202"/>
<path d="M970.691 163.016C987.959 131.031 1008.42 69.5882 1057.76 81.5507C1084.17 87.9562 1062.75 133.047 1059.41 147.18C1056.22 160.758 1030.78 221.031 1036.19 230.914C1055.48 246.328 1065.26 195.734 1070.82 191.211C1073.88 190.875 1072.75 190.398 1074.73 191.742C1068.81 208.672 1064.56 230.492 1048.15 239.289C1039.64 244.148 1031.73 245.617 1022.03 242.773C999.001 236.031 1014.77 201.578 1019.73 186.898C1027.98 159.672 1039.65 131.461 1046.19 103.727C1047.14 99.1171 1045.99 90.6374 1040.4 89.4921C1028.45 87.0492 1015.41 99.5547 1008.75 107.883C986.797 135.336 972.89 168.875 961.731 201.922C957.563 214.258 954.473 227.273 951.094 239.852L925.186 239.836L950.421 149.836C954.449 135.508 958.705 121.016 962.373 106.586C963.573 101.867 965.003 95.9531 961.399 92.2773C939.34 84.707 937.36 121.07 928.918 132.133C926.933 133.078 926.878 132.836 924.633 132.5C924.516 129.484 934.649 101.609 938.051 96.8515C945.077 87.0187 949.825 83.3155 961.556 80.6077C965.004 80.207 969.722 79.8202 973.132 80.4796C977.058 81.2374 980.487 83.6046 982.588 87.007C990.111 99.3593 974.915 146.492 970.691 163.016Z" fill="#020202"/>
<path d="M458.472 25.1882C485.759 25.9085 513.057 26.1999 540.354 26.0617C561.609 26.0773 585.388 26.4132 606.509 25.2749C598.776 45.8991 592.684 67.1015 588.291 88.6851L581.702 88.8179C583.836 77.1921 587.316 53.3804 582.22 43.3374C574.402 27.9273 526.515 29.8601 513.568 35.9812C505.38 39.8523 498.776 70.6124 496.513 79.0546L482.258 132.18C510.524 132.367 527.48 134.828 539.2 103.383C541.101 98.2812 542.106 92.3898 547.807 90.9827L548.919 91.8437C549.402 93.4859 549.071 96.1796 548.522 97.7499C543.127 113.141 539.496 128.906 535.489 144.719C534.26 150.289 529.575 174.062 527.702 177.5C525.625 177.664 524.109 177.93 522.062 177.484C521.526 173.437 523.445 164.844 523.794 159.726C525.622 132.867 501.19 137.742 480.687 137.75C477.115 152.695 456.953 216.375 460.475 226.5C463.51 235.219 477.724 231.539 483.938 234.547C485.417 236.867 485.166 235.641 484.778 238.32C484.321 238.75 483.864 239.187 483.406 239.625C472.577 239.492 458.17 239.078 447.723 239.031C432.62 238.898 417.516 239.141 402.424 239.75C400.726 238.172 401.209 239.125 401 236.75C403.87 233.305 410.82 233.766 415.287 232.766C432.26 228.953 434.923 204.797 438.874 190.101L451.185 144.359L467.148 84.9952C470.283 73.321 478.183 50.4452 476.262 38.3874C475.067 30.889 464.009 33.2601 458.259 30.6398C456.98 28.4796 457.63 28.55 458.472 25.1882Z" fill="#020202"/>
<path d="M1952.87 126.043C1962.69 125.238 1971.16 125.613 1980.05 130.707C2006.53 145.895 2006.92 201.918 1978.99 215.871C1975.34 217.692 1971.02 218.676 1966.97 219.551C1944.54 221.582 1927.34 214.059 1921.93 190.317C1915.55 162.324 1920.69 133.746 1952.87 126.043ZM1962.97 215.246C1970.73 213.574 1976.49 211.004 1980.57 203.629C1992.54 181.973 1991.94 131.145 1958.76 130.098C1931.68 132.676 1930.34 163.598 1932.58 184.926C1934.51 203.293 1943.3 215.418 1962.97 215.246Z" fill="#020202"/>
<path d="M1310.04 80.6109C1327.39 78.8531 1337.86 83.396 1335.63 102.687C1333.88 117.805 1327.25 133.547 1322.18 147.898L1302.47 203.719C1300.19 210.266 1295.8 220.172 1296.52 227.086C1296.71 228.945 1298.34 231.976 1300.16 232.594C1320.76 239.641 1325.31 193.726 1335.62 190.601L1336.46 191.594C1329.58 215.75 1324.58 235.766 1298.08 243.711C1292.26 244.156 1285.83 244.484 1280.34 242.187C1274.22 239.633 1271.86 234.305 1271.51 227.969C1270.03 201.508 1317.37 105.977 1310.46 93.8257C1309.43 92.0148 1307.81 91.2828 1305.83 90.9343C1287.15 87.6398 1284.08 125.422 1274.96 132.93C1272.69 133.117 1273.66 133.461 1271.87 132.219C1271.22 129.117 1281.95 102.383 1284.72 98.2734C1291.55 88.1132 1298.25 83.2859 1310.04 80.6109Z" fill="#020202"/>
<path d="M216.298 110.955C249.435 109.293 259.555 127.548 258.186 157.927L196.099 157.759C195.661 178.973 200.689 204.604 229.196 200.291C235.866 199.281 239.957 195.135 243.715 189.847C246.427 184.104 246.726 182.351 248.17 176.14L257.799 176.246C256.798 181.936 256.115 186.157 253.098 191.273C244.086 207.37 215.124 208.524 201.01 199.341C180.186 185.79 179.484 144.327 191.83 124.894C197.491 115.985 206.45 112.68 216.298 110.955ZM227.054 152.944L246.136 152.941C246.621 129.885 243.67 112.462 215.927 114.792C197.945 122.373 196.223 135.094 195.87 152.937L227.054 152.944Z" fill="#020202"/>
<path d="M1854.76 72.9652C1883.47 70.9105 1903.54 78.5433 1908.74 110.02L1895.51 110.09C1894.19 99.1059 1891.54 89.3246 1881.72 83.0199C1863.12 71.0668 1841.4 77.4809 1830.3 95.8168C1816.66 118.332 1815.72 149.707 1821.19 174.911C1827.15 202.387 1846.11 221.34 1875.95 213.676C1879.12 212.403 1882.1 210.7 1884.8 208.621C1895.65 200.192 1898.89 189.606 1900.26 176.715L1909.54 176.801C1904.97 214.481 1872.68 230.254 1838.28 215.723C1820.78 208.34 1809.37 186.786 1806.65 168.489C1800.89 129.918 1808.7 80.2855 1854.76 72.9652Z" fill="#020202"/>
<path d="M102.408 61L114.145 61.0719L114.107 124.247C122.427 116.387 132.22 111.608 143.901 111.675C172.863 111.842 169.833 141.521 169.769 161.795L169.59 202.815L158.226 202.784L158.033 140.555C157.908 138.681 157.726 136.708 157.402 134.855C153.279 111.32 124.904 114.37 114.142 131.176L114.069 202.815L102.455 202.816C101.848 155.988 102.409 107.928 102.408 61Z" fill="#020202"/>
<path d="M0.0103273 61.0766C28.1885 60.4906 61.9431 60.5258 90.1275 61.1055C90.751 63.6594 90.5642 63.8476 90.1892 66.3867C86.6845 67.5594 57.4541 66.5484 51.5205 66.4226C51.9197 98.6984 51.5713 131.926 51.5806 164.266C51.6736 177.12 51.622 189.976 51.4244 202.829L39.0627 202.816L39.026 66.5601C28.726 66.7234 10.6674 67.5117 0.995485 66.6835C-0.387328 64.7039 0.107202 63.9875 0.0103273 61.0766Z" fill="#020202"/>
<path d="M1337.76 9.56715C1361.92 7.81403 1361.98 38.9414 1336.83 48.039C1308.97 48.2281 1314.74 15.8211 1337.76 9.56715Z" fill="#020202"/>
<path d="M2018.87 198.614C2033.24 198.082 2035.31 212.067 2024.81 218.106C2011.28 217.723 2008.9 204.668 2018.87 198.614Z" fill="#020202"/>
  </g>
</svg>